<svg width="288" height="97" viewBox="0 0 288 97" fill="none" xmlns="http://www.w3.org/2000/svg">
<path d="M102.488 96.352C99.032 96.352 95.768 95.712 92.696 94.432C89.624 93.216 87.128 91.328 85.208 88.768C83.352 86.208 82.424 83.008 82.424 79.168C82.424 75.84 83.064 73.248 84.344 71.392C85.688 69.536 87.32 68.224 89.24 67.456C91.16 66.688 92.984 66.304 94.712 66.304C92.984 68.16 91.672 70.208 90.776 72.448C89.88 74.688 89.432 76.928 89.432 79.168C89.432 81.536 89.944 83.744 90.968 85.792C92.056 87.84 93.688 89.472 95.864 90.688C98.04 91.968 100.792 92.608 104.12 92.608C107 92.608 109.816 92.064 112.568 90.976C115.32 89.952 117.56 88.416 119.288 86.368C121.08 84.256 121.976 81.664 121.976 78.592C121.976 75.84 121.272 73.472 119.864 71.488C118.456 69.504 116.632 67.744 114.392 66.208C112.216 64.672 109.88 63.2 107.384 61.792C104.888 60.384 102.52 58.912 100.28 57.376C98.104 55.776 96.312 53.952 94.904 51.904C93.496 49.856 92.792 47.392 92.792 44.512C92.792 41.824 93.432 39.008 94.712 36.064C95.992 33.12 97.816 30.336 100.184 27.712C102.616 25.088 105.496 22.976 108.824 21.376C112.216 19.712 115.992 18.88 120.152 18.88C123.928 18.88 126.552 19.808 128.024 21.664C129.496 23.456 130.232 25.728 130.232 28.48C130.232 30.784 129.816 33.28 128.984 35.968C128.216 38.592 127.256 41.12 126.104 43.552C124.952 45.92 123.864 47.936 122.84 49.6C121.688 49.344 120.856 48.864 120.344 48.16C119.896 47.392 119.672 46.496 119.672 45.472C119.672 44.128 119.96 42.592 120.536 40.864C121.112 39.136 121.752 37.344 122.456 35.488C123.224 33.632 123.896 31.84 124.472 30.112C125.048 28.32 125.336 26.72 125.336 25.312C125.336 24.032 124.952 23.04 124.184 22.336C123.416 21.568 122.008 21.184 119.96 21.184C116.952 21.184 114.168 21.888 111.608 23.296C109.048 24.704 106.808 26.528 104.888 28.768C102.968 30.944 101.464 33.248 100.376 35.68C99.352 38.112 98.84 40.32 98.84 42.304C98.84 44.672 99.512 46.72 100.856 48.448C102.264 50.112 104.056 51.648 106.232 53.056C108.408 54.4 110.712 55.776 113.144 57.184C115.64 58.528 117.976 60.032 120.152 61.696C122.328 63.36 124.088 65.344 125.432 67.648C126.84 69.888 127.544 72.64 127.544 75.904C127.544 79.232 126.808 82.176 125.336 84.736C123.864 87.232 121.88 89.344 119.384 91.072C116.952 92.8 114.264 94.112 111.32 95.008C108.376 95.904 105.432 96.352 102.488 96.352ZM147.429 92.416C144.677 92.416 142.565 91.616 141.093 90.016C139.621 88.416 138.885 86.048 138.885 82.912C138.885 80.096 139.397 76.64 140.421 72.544C141.509 68.384 142.853 64.128 144.453 59.776C143.813 59.648 143.205 59.552 142.629 59.488C142.053 59.36 141.509 59.2 140.997 59.008V57.28C141.509 57.344 142.117 57.408 142.821 57.472C143.525 57.536 144.325 57.6 145.221 57.664C146.565 54.208 148.005 50.88 149.541 47.68C151.077 44.416 152.581 41.536 154.053 39.04C155.589 36.48 157.029 34.464 158.373 32.992C159.781 31.456 160.965 30.688 161.925 30.688C162.437 30.688 162.885 30.88 163.269 31.264C163.717 31.584 163.941 32.096 163.941 32.8C163.941 33.888 163.269 35.68 161.925 38.176C160.581 40.608 158.917 43.52 156.933 46.912C154.949 50.304 153.029 53.984 151.173 57.952C151.749 57.952 152.325 57.952 152.901 57.952C153.541 57.952 154.149 57.952 154.725 57.952C156.837 57.952 159.045 57.92 161.349 57.856C163.717 57.792 166.085 57.632 168.453 57.376V59.104C164.933 59.488 161.765 59.776 158.949 59.968C156.197 60.16 153.733 60.256 151.557 60.256C151.301 60.256 151.045 60.256 150.789 60.256C150.597 60.256 150.373 60.256 150.117 60.256C148.645 63.648 147.397 67.136 146.373 70.72C145.349 74.304 144.837 77.792 144.837 81.184C144.837 83.936 145.253 85.92 146.085 87.136C146.917 88.288 148.293 88.864 150.213 88.864C153.541 88.864 156.805 87.392 160.005 84.448C163.205 81.504 166.021 77.504 168.453 72.448L169.701 73.408C168.165 76.992 166.213 80.224 163.845 83.104C161.541 85.984 158.981 88.256 156.165 89.92C153.349 91.584 150.437 92.416 147.429 92.416ZM177.972 91.072C175.54 91.072 173.652 90.272 172.308 88.672C170.964 87.136 170.292 85.152 170.292 82.72C170.292 80.672 170.708 78.4 171.54 75.904C172.436 73.344 173.652 70.816 175.188 68.32C176.724 65.76 178.452 63.424 180.372 61.312C182.356 59.2 184.468 57.504 186.708 56.224C188.948 54.88 191.22 54.208 193.524 54.208C194.74 54.208 195.668 54.4 196.308 54.784C196.948 55.168 197.396 55.648 197.652 56.224C197.78 56.16 197.876 56.128 197.94 56.128C198.068 56.128 198.196 56.128 198.324 56.128C199.54 56.128 200.372 56.608 200.82 57.568C201.332 58.528 201.588 59.296 201.588 59.872C201.588 60.64 201.268 61.664 200.628 62.944C199.988 64.16 199.348 65.536 198.708 67.072C198.132 68.608 197.844 70.24 197.844 71.968C197.844 73.76 198.292 75.104 199.188 76C200.084 76.832 201.524 77.248 203.508 77.248C204.788 77.248 206.132 76.64 207.54 75.424C209.012 74.144 210.452 72.544 211.86 70.624C213.268 68.64 214.516 66.496 215.604 64.192C216.756 61.888 217.62 59.68 218.196 57.568C217.556 56.928 217.236 56.16 217.236 55.264C217.236 53.984 217.492 52.864 218.004 51.904C218.516 50.88 219.092 50.112 219.732 49.6C220.436 49.024 220.948 48.736 221.268 48.736C221.972 48.736 222.356 49.056 222.42 49.696C222.548 50.272 222.612 50.72 222.612 51.04C222.612 51.36 222.42 52 222.036 52.96C221.716 53.856 221.556 54.4 221.556 54.592C221.556 55.488 222.036 56.32 222.996 57.088C224.02 57.792 225.172 58.624 226.452 59.584C227.732 60.48 228.852 61.6 229.812 62.944C230.836 64.224 231.348 65.888 231.348 67.936C231.348 69.856 230.932 71.808 230.1 73.792C229.332 75.776 228.532 77.664 227.7 79.456C226.932 81.248 226.548 82.816 226.548 84.16C226.548 85.312 226.836 86.08 227.412 86.464C227.988 86.848 228.66 87.04 229.428 87.04C230.964 87.04 232.532 86.56 234.132 85.6C235.796 84.64 237.396 83.424 238.932 81.952C240.468 80.48 241.844 78.944 243.06 77.344C244.276 75.68 245.172 74.144 245.748 72.736L246.996 73.696C245.78 76.384 244.116 79.04 242.004 81.664C239.892 84.224 237.524 86.336 234.9 88C232.34 89.664 229.684 90.496 226.932 90.496C224.756 90.496 223.028 89.92 221.748 88.768C220.532 87.616 219.924 86.112 219.924 84.256C219.924 82.336 220.372 80.32 221.268 78.208C222.164 76.096 223.028 74.016 223.86 71.968C224.756 69.856 225.204 67.968 225.204 66.304C225.204 64.256 224.596 62.752 223.38 61.792C222.228 60.768 221.044 59.84 219.828 59.008C219.124 61.184 218.164 63.488 216.948 65.92C215.796 68.288 214.484 70.528 213.012 72.64C211.54 74.688 209.94 76.352 208.212 77.632C206.548 78.912 204.788 79.552 202.932 79.552C201.14 79.552 199.508 79.2 198.036 78.496C196.628 77.728 195.54 76.608 194.772 75.136C192.788 79.808 190.324 83.648 187.38 86.656C184.5 89.6 181.364 91.072 177.972 91.072ZM180.084 86.944C181.556 86.944 183.124 86.304 184.788 85.024C186.452 83.68 188.084 81.888 189.684 79.648C191.284 77.408 192.66 74.912 193.812 72.16C193.428 70.624 193.236 68.8 193.236 66.688C193.236 65.216 193.3 63.936 193.428 62.848C193.62 61.76 193.844 60.8 194.1 59.968C194.42 59.136 194.74 58.464 195.06 57.952C192.884 57.952 190.836 58.56 188.916 59.776C187.06 60.928 185.364 62.464 183.828 64.384C182.292 66.24 180.98 68.256 179.892 70.432C178.804 72.608 177.94 74.72 177.3 76.768C176.724 78.816 176.436 80.576 176.436 82.048C176.436 83.52 176.756 84.704 177.396 85.6C178.036 86.496 178.932 86.944 180.084 86.944ZM258.893 92.224C254.989 92.224 252.045 91.136 250.061 88.96C248.141 86.848 247.181 84.224 247.181 81.088C247.181 78.208 247.885 75.168 249.293 71.968C250.765 68.768 252.685 65.76 255.053 62.944C257.485 60.128 260.141 57.856 263.021 56.128C265.901 54.336 268.749 53.44 271.565 53.44C273.037 53.44 274.381 53.824 275.597 54.592C276.877 55.36 277.517 56.928 277.517 59.296C277.517 61.728 276.781 64.032 275.309 66.208C273.901 68.32 272.013 70.208 269.645 71.872C267.341 73.536 264.781 74.912 261.965 76C259.213 77.024 256.461 77.664 253.709 77.92C253.581 78.56 253.485 79.168 253.421 79.744C253.357 80.32 253.325 80.864 253.325 81.376C253.325 82.336 253.421 83.296 253.613 84.256C253.869 85.216 254.285 86.112 254.861 86.944C255.437 87.712 256.205 88.32 257.165 88.768C258.189 89.216 259.437 89.44 260.909 89.44C263.661 89.44 266.381 88.672 269.069 87.136C271.757 85.536 274.253 83.456 276.557 80.896C278.861 78.336 280.813 75.52 282.413 72.448L283.565 73.312C281.837 77.152 279.629 80.48 276.941 83.296C274.317 86.112 271.437 88.288 268.301 89.824C265.229 91.424 262.093 92.224 258.893 92.224ZM254.189 76.096C255.917 75.52 257.869 74.688 260.045 73.6C262.221 72.448 264.301 71.104 266.285 69.568C268.333 68.032 269.997 66.336 271.277 64.48C272.621 62.624 273.293 60.672 273.293 58.624C273.293 57.92 273.165 57.376 272.909 56.992C272.653 56.608 272.109 56.416 271.277 56.416C269.741 56.416 268.109 57.024 266.381 58.24C264.653 59.392 262.989 60.928 261.389 62.848C259.789 64.768 258.349 66.88 257.069 69.184C255.789 71.488 254.829 73.792 254.189 76.096Z" fill="#184518"/>
<path d="M68.083 94L66.332 63.512C65.817 53.83 65.199 42.191 65.302 33.539H64.993C62.624 41.676 59.74 50.328 56.238 59.907L43.981 93.588H37.183L25.956 60.525C22.66 50.74 19.879 41.779 17.922 33.539H17.716C17.51 42.191 16.995 53.83 16.377 64.233L14.523 94H5.974L10.815 24.578H22.248L34.093 58.156C36.977 66.705 39.346 74.327 41.097 81.537H41.406C43.157 74.533 45.629 66.911 48.719 58.156L61.079 24.578H72.512L76.838 94H68.083Z" fill="#C80F0F"/>
</svg>
